<?xml version="1.0" encoding="UTF-8"?><svg xmlns="http://www.w3.org/2000/svg" width="16" height="16"><path d="M4 .5c-.82235 0-1.5.67765-1.5 1.5v12c0 .82235.67765 1.5 1.5 1.5h8c.82235 0 1.5-.67765 1.5-1.5V2c0-.82235-.67765-1.5-1.5-1.5zm6.75977 1.875c.19735.00499.35705.16213.36523.35938l.04883 1.125.81055.78125c.19826.19209.12805.52532-.13086.62109l-1.0547.39258-.49218 1.01367c-.12112.24791-.45945.28457-.63086.06836l-.69922-.88086-1.11523-.15625c-.27337-.03773-.41375-.34782-.26172-.57813l.62305-.93945-.19727-1.10742c-.04931-.2727.20396-.50285.4707-.42774l1.08399.30274.99414-.5293a.37503.37503 0 01.18555-.04492zm-4.24805 5.75a.37502.37502 0 01.26562.1211L7.8711 9.4414l1.61524.10938c.27516.01895.43642.31844.30078.5586l-.79688 1.41015.39454 1.57031c.06763.26825-.16852.5149-.43946.45899l-1.58593-.32227-1.3711.85938c-.23396.14707-.54123-.0008-.57226-.2754l-.1836-1.60937-1.24219-1.0371c-.21182-.17673-.16679-.51397.08399-.62891l1.4746-.67188.60352-1.5039a.37504.37504 0 01.35938-.23438z" fill="#333"/></svg>