<?xml version="1.0" encoding="UTF-8"?>
<svg width="16" height="16" version="1.1" viewBox="0 0 16 16" xmlns="http://www.w3.org/2000/svg">
 <g>
  <circle cx="8" cy="5" r="4" fill="#333333"/>
  <path d="m5.5039 9.3262c-0.85148 0.2284-1.632 0.5678-2.3008 1.0137-1.2811 0.85408-2.2031 2.1503-2.2031 3.6602 5.52e-5 0.55226 0.44774 0.99994 1 1h12c0.55226-5.5e-5 0.99994-0.44774 1-1 0-1.5099-0.922-2.8061-2.2031-3.6602-0.66975-0.4465-1.4518-0.78528-2.3047-1.0137a5 5 0 0 1-2.4922 0.67383 5 5 0 0 1-2.4961-0.67383z" fill="#333333"/>
 </g>
</svg>
